<svg xmlns="http://www.w3.org/2000/svg" width="200.45" height="35.536" viewBox="0 0 200.45 35.536">
  <g id="Group_5" data-name="Group 5" transform="translate(-68.023 -220.25)">
    <g id="DONATE_NOW." data-name="DONATE NOW.">
      <g id="Group_807" data-name="Group 807">
        <path id="Path_243" data-name="Path 243" d="M81.763,222.638a10.089,10.089,0,0,1,0,12.224A7.873,7.873,0,0,1,75.825,237h-7V220.5h7A7.873,7.873,0,0,1,81.763,222.638ZM78.45,232.5a7.7,7.7,0,0,0,0-7.5,3.629,3.629,0,0,0-3.05-1.25H73.125v10H75.4A3.626,3.626,0,0,0,78.45,232.5Z" fill="#030504"/>
        <path id="Path_244" data-name="Path 244" d="M100.987,221.263a6.8,6.8,0,0,1,2.788,2.925,11.163,11.163,0,0,1,0,9.125,6.8,6.8,0,0,1-2.788,2.924,9.712,9.712,0,0,1-8.637,0,6.775,6.775,0,0,1-2.8-2.924,11.163,11.163,0,0,1,0-9.125,6.777,6.777,0,0,1,2.8-2.925,9.712,9.712,0,0,1,8.637,0Zm-7.062,3.662a8.175,8.175,0,0,0,0,7.65,3.2,3.2,0,0,0,2.75,1.3,3.164,3.164,0,0,0,2.737-1.3,8.268,8.268,0,0,0,0-7.65,3.164,3.164,0,0,0-2.737-1.3A3.2,3.2,0,0,0,93.925,224.925Z" fill="#030504"/>
        <path id="Path_245" data-name="Path 245" d="M125.075,237H120.3l-5.125-8.925-1.25-2.5H113.9l.1,3.1V237h-3.8V220.5h4.775l5.125,8.925,1.25,2.5h.025l-.1-3.1V220.5h3.8Z" fill="#030504"/>
        <path id="Path_246" data-name="Path 246" d="M140.674,233.275h-5.7L133.824,237H129.5l5.8-16.5h5.15l5.776,16.5H141.8Zm-.9-2.925-1.2-3.95-.724-2.6H137.8l-.674,2.575-1.25,3.975Z" fill="#030504"/>
        <path id="Path_247" data-name="Path 247" d="M162.3,223.825h-5.375V237h-4.3V223.825h-5.4V220.5H162.3Z" fill="#030504"/>
        <path id="Path_248" data-name="Path 248" d="M180.424,233.675V237H167.25V220.5H180.1v3.325h-8.55v3.35h6.8V230.3h-6.8v3.375Z" fill="#030504"/>
        <path id="Path_249" data-name="Path 249" d="M210.049,237h-4.775l-5.125-8.925-1.25-2.5h-.025l.1,3.1V237h-3.8V220.5h4.775l5.125,8.925,1.25,2.5h.025l-.1-3.1V220.5h3.8Z" fill="#030504"/>
        <path id="Path_250" data-name="Path 250" d="M227.912,221.263a6.8,6.8,0,0,1,2.787,2.925,11.163,11.163,0,0,1,0,9.125,6.8,6.8,0,0,1-2.787,2.924,9.714,9.714,0,0,1-8.638,0,6.775,6.775,0,0,1-2.8-2.924,11.163,11.163,0,0,1,0-9.125,6.777,6.777,0,0,1,2.8-2.925,9.714,9.714,0,0,1,8.638,0Zm-7.063,3.662a8.175,8.175,0,0,0,0,7.65,3.2,3.2,0,0,0,2.75,1.3,3.164,3.164,0,0,0,2.737-1.3,8.268,8.268,0,0,0,0-7.65,3.164,3.164,0,0,0-2.737-1.3A3.2,3.2,0,0,0,220.849,224.925Z" fill="#030504"/>
        <path id="Path_251" data-name="Path 251" d="M244.75,237h-4.826l-4.75-16.5H239.8l2.725,13.125L245.5,220.5h3.9l3.025,13.1,2.725-13.1h4.45L254.824,237h-4.675l-1.95-8-.75-4.025h-.05L246.674,229Z" fill="#030504"/>
      </g>
      <g id="Group_808" data-name="Group 808">
        <path id="Path_252" data-name="Path 252" d="M267.812,233.3a2.148,2.148,0,0,1,.662,1.675,2.116,2.116,0,0,1-.662,1.65,3.114,3.114,0,0,1-3.675,0,2.113,2.113,0,0,1-.663-1.65,2.145,2.145,0,0,1,.663-1.675,3.114,3.114,0,0,1,3.675,0Z" fill="#a91e1c"/>
      </g>
    </g>
    <line id="Line_87" data-name="Line 87" x2="23.381" transform="translate(68.023 252.786)" fill="none" stroke="#a91e1c" stroke-width="6"/>
  </g>
</svg>
