<svg xmlns="http://www.w3.org/2000/svg" width="20.001" height="20" viewBox="0 0 20.001 20">
  <g id="Group_5" data-name="Group 5" transform="translate(-39.458)">
    <g id="Group_3" data-name="Group 3" transform="translate(39.458)">
      <path id="Path_7" data-name="Path 7" d="M-470.828,254.942H-478.5a6.163,6.163,0,0,0-6.162,6.163v7.675a6.162,6.162,0,0,0,6.162,6.162h7.676a6.162,6.162,0,0,0,6.162-6.162v-7.675A6.162,6.162,0,0,0-470.828,254.942Zm4.242,13.1a4.979,4.979,0,0,1-4.979,4.979h-6.2a4.979,4.979,0,0,1-4.98-4.979v-6.2a4.98,4.98,0,0,1,4.98-4.979h6.2a4.98,4.98,0,0,1,4.979,4.979Z" transform="translate(484.666 -254.942)" fill="#fff"/>
      <path id="Path_8" data-name="Path 8" d="M-446.23,286.566a5.268,5.268,0,0,0-5.269,5.268,5.269,5.269,0,0,0,5.269,5.268,5.269,5.269,0,0,0,5.268-5.268A5.268,5.268,0,0,0-446.23,286.566Zm0,8.437a3.17,3.17,0,0,1-3.17-3.169,3.169,3.169,0,0,1,3.17-3.17,3.169,3.169,0,0,1,3.169,3.17A3.17,3.17,0,0,1-446.23,295Z" transform="translate(456.499 -281.799)" fill="#fff"/>
      <path id="Path_9" data-name="Path 9" d="M-390.227,278.469a1.34,1.34,0,0,1-1.34,1.339,1.339,1.339,0,0,1-1.339-1.339,1.34,1.34,0,0,1,1.339-1.34A1.341,1.341,0,0,1-390.227,278.469Z" transform="translate(406.738 -273.784)" fill="#fff"/>
    </g>
  </g>
</svg>
