<svg xmlns="http://www.w3.org/2000/svg" width="190.527" height="34.535" viewBox="0 0 190.527 34.535">
  <g id="Group_799" data-name="Group 799" transform="translate(-82.427 -315.074)">
    <g id="NON-PROFIT.">
      <g id="Group_805" data-name="Group 805">
        <path id="Path_232" data-name="Path 232" d="M98.1,331.824H93.329L88.2,322.9l-1.25-2.5h-.025l.1,3.1v8.325h-3.8v-16.5H88l5.125,8.925,1.25,2.5H94.4l-.1-3.1v-8.325h3.8Z" fill="#030504"/>
        <path id="Path_233" data-name="Path 233" d="M115.967,316.086a6.805,6.805,0,0,1,2.787,2.925,11.163,11.163,0,0,1,0,9.125,6.8,6.8,0,0,1-2.787,2.925,9.714,9.714,0,0,1-8.638,0,6.778,6.778,0,0,1-2.8-2.925,11.163,11.163,0,0,1,0-9.125,6.783,6.783,0,0,1,2.8-2.925,9.722,9.722,0,0,1,8.638,0Zm-7.063,3.663a8.175,8.175,0,0,0,0,7.65,3.2,3.2,0,0,0,2.75,1.3,3.166,3.166,0,0,0,2.738-1.3,8.276,8.276,0,0,0,0-7.65,3.163,3.163,0,0,0-2.738-1.3A3.2,3.2,0,0,0,108.9,319.749Z" fill="#030504"/>
        <path id="Path_234" data-name="Path 234" d="M140.054,331.824h-4.775l-5.125-8.925-1.25-2.5h-.025l.1,3.1v8.325h-3.8v-16.5h4.775l5.125,8.925,1.25,2.5h.025l-.1-3.1v-8.325h3.8Z" fill="#030504"/>
        <path id="Path_235" data-name="Path 235" d="M155.554,326.874H146.4V323.4h9.15Z" fill="#030504"/>
        <path id="Path_236" data-name="Path 236" d="M174.2,316.736a5.055,5.055,0,0,1,1.65,4.062,4.829,4.829,0,0,1-1.65,3.913,7.15,7.15,0,0,1-4.725,1.388H166.2v5.725h-4.3v-16.5h7.575A7.06,7.06,0,0,1,174.2,316.736Zm-3.337,5.676a2.018,2.018,0,0,0,.662-1.663,1.987,1.987,0,0,0-.662-1.638,3.254,3.254,0,0,0-2.063-.537h-2.6v4.375h2.6A3.254,3.254,0,0,0,170.867,322.412Z" fill="#030504"/>
        <path id="Path_237" data-name="Path 237" d="M187.9,325.8h-2.575v6.026H181.1v-16.5h7.875a7.007,7.007,0,0,1,4.613,1.349,4.8,4.8,0,0,1,1.612,3.9,5.174,5.174,0,0,1-.825,3,4.813,4.813,0,0,1-2.4,1.775l4.2,6.475h-4.75Zm-2.575-3.049h2.925a3.2,3.2,0,0,0,2-.5,1.927,1.927,0,0,0,.625-1.6,1.9,1.9,0,0,0-.625-1.575,3.206,3.206,0,0,0-2-.5h-2.925Z" fill="#030504"/>
        <path id="Path_238" data-name="Path 238" d="M212.392,316.086a6.805,6.805,0,0,1,2.787,2.925,11.163,11.163,0,0,1,0,9.125,6.8,6.8,0,0,1-2.787,2.925,9.714,9.714,0,0,1-8.638,0,6.778,6.778,0,0,1-2.8-2.925,11.163,11.163,0,0,1,0-9.125,6.783,6.783,0,0,1,2.8-2.925,9.722,9.722,0,0,1,8.638,0Zm-7.063,3.663a8.175,8.175,0,0,0,0,7.65,3.2,3.2,0,0,0,2.75,1.3,3.164,3.164,0,0,0,2.737-1.3,8.268,8.268,0,0,0,0-7.65,3.161,3.161,0,0,0-2.737-1.3A3.2,3.2,0,0,0,205.329,319.749Z" fill="#030504"/>
        <path id="Path_239" data-name="Path 239" d="M225.9,318.649v3.5h6.8v3.325h-6.8v6.35h-4.3v-16.5h12.825v3.325Z" fill="#030504"/>
        <path id="Path_240" data-name="Path 240" d="M243.7,331.824h-4.3v-16.5h4.3Z" fill="#030504"/>
        <path id="Path_241" data-name="Path 241" d="M263.729,318.649h-5.375v13.175h-4.3V318.649h-5.4v-3.325h15.075Z" fill="#030504"/>
      </g>
      <g id="Group_806" data-name="Group 806">
        <path id="Path_242" data-name="Path 242" d="M272.292,328.124a2.147,2.147,0,0,1,.662,1.674,2.118,2.118,0,0,1-.662,1.651,3.118,3.118,0,0,1-3.675,0,2.115,2.115,0,0,1-.663-1.651,2.144,2.144,0,0,1,.663-1.674,3.114,3.114,0,0,1,3.675,0Z" fill="#a91e1c"/>
      </g>
    </g>
    <line id="Line_87-2" data-name="Line 87-2" x2="23.381" transform="translate(82.427 346.61)" fill="none" stroke="#a91e1c" stroke-width="6"/>
  </g>
</svg>
