<svg xmlns="http://www.w3.org/2000/svg" width="150.498" height="34.285" viewBox="0 0 150.498 34.285">
  <g id="Group_800" data-name="Group 800" transform="translate(-288.782 -278.083)">
    <g id="THE_PLAN." data-name="THE PLAN.">
      <g id="Group_809" data-name="Group 809">
        <path id="Path_253" data-name="Path 253" d="M303.857,281.408h-5.375v13.175h-4.3V281.408h-5.4v-3.325h15.075Z" fill="#fff"/>
        <path id="Path_254" data-name="Path 254" d="M323.707,278.083v16.5h-4.3v-6.651h-6.3v6.651h-4.3v-16.5h4.3v6.525h6.3v-6.525Z" fill="#fff"/>
        <path id="Path_255" data-name="Path 255" d="M343.031,291.257v3.326H329.856v-16.5h12.85v3.325h-8.55v3.349h6.8v3.125h-6.8v3.375Z" fill="#fff"/>
        <path id="Path_256" data-name="Path 256" d="M370.081,279.495a5.055,5.055,0,0,1,1.649,4.062,4.829,4.829,0,0,1-1.649,3.913,7.153,7.153,0,0,1-4.726,1.388h-3.274v5.725h-4.3v-16.5h7.574A7.063,7.063,0,0,1,370.081,279.495Zm-3.338,5.675a2.015,2.015,0,0,0,.663-1.663,1.983,1.983,0,0,0-.663-1.637,3.249,3.249,0,0,0-2.062-.537h-2.6v4.375h2.6A3.243,3.243,0,0,0,366.743,285.17Z" fill="#fff"/>
        <path id="Path_257" data-name="Path 257" d="M389.556,291.257v3.326H376.981v-16.5h4.3v13.174Z" fill="#fff"/>
        <path id="Path_258" data-name="Path 258" d="M403.98,290.858h-5.7l-1.15,3.725h-4.325l5.8-16.5h5.151l5.775,16.5h-4.426Zm-.9-2.926-1.2-3.949-.725-2.6h-.051l-.674,2.576-1.25,3.974Z" fill="#fff"/>
        <path id="Path_259" data-name="Path 259" d="M428.831,294.583h-4.775l-5.125-8.925-1.25-2.5h-.026l.1,3.1v8.326h-3.8v-16.5h4.774l5.125,8.924,1.25,2.5h.026l-.1-3.1v-8.325h3.8Z" fill="#fff"/>
      </g>
      <g id="Group_810" data-name="Group 810">
        <path id="Path_260" data-name="Path 260" d="M438.618,290.882a2.146,2.146,0,0,1,.662,1.675,2.116,2.116,0,0,1-.662,1.651,3.118,3.118,0,0,1-3.675,0,2.117,2.117,0,0,1-.663-1.651,2.146,2.146,0,0,1,.663-1.675,3.118,3.118,0,0,1,3.675,0Z" fill="#a91e1c"/>
      </g>
    </g>
    <line id="Line_87" data-name="Line 87" x2="23.381" transform="translate(289.18 309.369)" fill="none" stroke="#a91e1c" stroke-width="6"/>
  </g>
</svg>
