<svg xmlns="http://www.w3.org/2000/svg" width="229.324" height="34.536" viewBox="0 0 229.324 34.536">
  <g id="Group_756" data-name="Group 756" transform="translate(-38.566 -154.956)">
    <g id="THE_SITUATION." data-name="THE SITUATION.">
      <g id="Group_803" data-name="Group 803">
        <path id="Path_219" data-name="Path 219" d="M53.642,158.531H48.267v13.175h-4.3V158.531h-5.4v-3.325H53.642Z" fill="#030504"/>
        <path id="Path_220" data-name="Path 220" d="M73.492,155.206v16.5h-4.3v-6.65h-6.3v6.65h-4.3v-16.5h4.3v6.525h6.3v-6.525Z" fill="#030504"/>
        <path id="Path_221" data-name="Path 221" d="M92.816,168.381v3.325H79.641v-16.5h12.85v3.325h-8.55v3.35h6.8v3.125h-6.8v3.375Z" fill="#030504"/>
        <path id="Path_222" data-name="Path 222" d="M118.028,155.656a8.8,8.8,0,0,1,3.088,2.275l-2.425,2.8a5.314,5.314,0,0,0-1.938-1.837,5.628,5.628,0,0,0-2.662-.588,3.7,3.7,0,0,0-2,.45,1.369,1.369,0,0,0-.7,1.2,1.149,1.149,0,0,0,.737,1.013,9.584,9.584,0,0,0,2.513.712,11,11,0,0,1,4.887,1.825,4.121,4.121,0,0,1,1.463,3.375,4.289,4.289,0,0,1-.9,2.725,5.563,5.563,0,0,1-2.488,1.75,10.092,10.092,0,0,1-3.587.6,12.635,12.635,0,0,1-4.55-.687,7.869,7.869,0,0,1-3.025-2.113l2.2-3a5.574,5.574,0,0,0,2.2,1.9,7.162,7.162,0,0,0,2.95.55,4.3,4.3,0,0,0,2.062-.387,1.216,1.216,0,0,0,.688-1.113c0-.383-.247-.7-.738-.937a10.487,10.487,0,0,0-2.462-.688,18.457,18.457,0,0,1-3.513-1.012,5.161,5.161,0,0,1-2.15-1.588,4.082,4.082,0,0,1-.762-2.55,4.805,4.805,0,0,1,.837-2.775,5.47,5.47,0,0,1,2.45-1.912,9.682,9.682,0,0,1,3.813-.688A10.319,10.319,0,0,1,118.028,155.656Z" fill="#030504"/>
        <path id="Path_223" data-name="Path 223" d="M130.466,171.706h-4.3v-16.5h4.3Z" fill="#030504"/>
        <path id="Path_224" data-name="Path 224" d="M150.491,158.531h-5.375v13.175h-4.3V158.531h-5.4v-3.325h15.075Z" fill="#030504"/>
        <path id="Path_225" data-name="Path 225" d="M169.891,164.981a6.862,6.862,0,0,1-1.85,5.225,9.578,9.578,0,0,1-11.038,0,6.833,6.833,0,0,1-1.862-5.225v-9.775h4.325v9.85a3.991,3.991,0,0,0,.75,2.65,2.862,2.862,0,0,0,2.3.875q3.1,0,3.1-3.525v-9.85h4.275Z" fill="#030504"/>
        <path id="Path_226" data-name="Path 226" d="M184.616,167.981h-5.7l-1.15,3.725h-4.325l5.8-16.5h5.15l5.775,16.5h-4.425Zm-.9-2.925-1.2-3.95-.725-2.6h-.05l-.675,2.575-1.25,3.975Z" fill="#030504"/>
        <path id="Path_227" data-name="Path 227" d="M206.241,158.531h-5.375v13.175h-4.3V158.531h-5.4v-3.325h15.075Z" fill="#030504"/>
        <path id="Path_228" data-name="Path 228" d="M215.491,171.706h-4.3v-16.5h4.3Z" fill="#030504"/>
        <path id="Path_229" data-name="Path 229" d="M233.354,155.969a6.8,6.8,0,0,1,2.787,2.925,11.163,11.163,0,0,1,0,9.125,6.8,6.8,0,0,1-2.787,2.924,9.714,9.714,0,0,1-8.638,0,6.775,6.775,0,0,1-2.8-2.924,11.163,11.163,0,0,1,0-9.125,6.777,6.777,0,0,1,2.8-2.925,9.714,9.714,0,0,1,8.638,0Zm-7.063,3.662a8.175,8.175,0,0,0,0,7.65,3.2,3.2,0,0,0,2.75,1.3,3.164,3.164,0,0,0,2.737-1.3,8.268,8.268,0,0,0,0-7.65,3.164,3.164,0,0,0-2.737-1.3A3.2,3.2,0,0,0,226.291,159.631Z" fill="#030504"/>
        <path id="Path_230" data-name="Path 230" d="M257.441,171.706h-4.775l-5.125-8.925-1.25-2.5h-.025l.1,3.1v8.325h-3.8v-16.5h4.775l5.125,8.925,1.25,2.5h.025l-.1-3.1v-8.325h3.8Z" fill="#030504"/>
      </g>
      <g id="Group_804" data-name="Group 804">
        <path id="Path_231" data-name="Path 231" d="M267.228,168.006a2.148,2.148,0,0,1,.663,1.675,2.116,2.116,0,0,1-.663,1.65,3.114,3.114,0,0,1-3.675,0,2.112,2.112,0,0,1-.662-1.65,2.144,2.144,0,0,1,.662-1.675,3.114,3.114,0,0,1,3.675,0Z" fill="#a91e1c"/>
      </g>
    </g>
    <line id="Line_87" data-name="Line 87" x2="23.381" transform="translate(38.964 186.492)" fill="none" stroke="#a91e1c" stroke-width="6"/>
  </g>
</svg>
